<svg width="2094" height="2104" viewBox="0 0 2094 2104" fill="none" xmlns="http://www.w3.org/2000/svg">
<g clip-path="url(#clip0_1272_3122)">
<rect width="2093.33" height="2104" fill="white"/>
<path d="M641.313 604.935L639.372 602.995C638.494 602.117 638 600.925 638 599.683C638 597.097 635.903 595 633.317 595H628.19C625.963 595 623.802 595.758 622.063 597.149L563.672 643.849C560.403 646.463 558.5 650.423 558.5 654.609V659.292C558.5 660.363 559.369 661.232 560.44 661.232C562.169 661.232 563.034 663.322 561.812 664.544L559.47 666.885C558.849 667.506 558.007 667.855 557.129 667.855H556.558C553.972 667.855 551.875 669.952 551.875 672.538C551.875 673.78 551.381 674.972 550.503 675.85L545.25 681.101L540.967 685.383C539.467 686.882 538.625 688.916 538.625 691.036C538.625 693.157 537.783 695.19 536.283 696.689L534.744 698.228C532.987 699.984 532 702.367 532 704.851V707.592C532 711.251 534.966 714.217 538.625 714.217H541.157C543.417 714.217 545.25 716.05 545.25 718.311C545.25 719.861 544.374 721.279 542.987 721.972L537.924 724.502C534.294 726.317 532 730.028 532 734.087C532 738.328 533.685 742.395 536.684 745.393L538.625 747.333L546.638 755.344C550.107 758.812 552.994 762.816 555.188 767.203L556.405 769.637C557.793 772.412 559.619 774.944 561.812 777.138C564.006 779.331 565.832 781.864 567.22 784.639L570.674 791.545C571.382 792.959 571.75 794.519 571.75 796.1C571.75 798.801 572.823 801.392 574.734 803.302L577.097 805.664C577.947 806.514 578.879 807.278 579.879 807.944L598.25 820.188L606.293 825.549C613.962 830.66 619.708 838.181 622.622 846.923C624.032 851.15 624.75 855.576 624.75 860.031V866.551V873.174V886.42V893.043V900.394C624.75 904.299 624.12 908.178 622.885 911.883L621.109 917.21C619.198 922.94 619.643 929.195 622.345 934.597C623.927 937.759 624.75 941.247 624.75 944.782V946.029V959.275C624.75 963.594 623.471 967.816 621.075 971.409L617.341 977.009C613.729 982.425 613.297 989.362 616.209 995.184C617.469 997.703 618.125 1000.48 618.125 1003.3V1005.64V1018.88C618.125 1026.92 622.914 1034.18 630.301 1037.35L659.159 1049.71C662.385 1051.09 666.127 1050.37 668.61 1047.89L668.783 1047.72C670.283 1046.22 671.125 1044.19 671.125 1042.07C671.125 1039.94 671.967 1037.91 673.467 1036.41L677.75 1032.13L683.003 1026.88C683.881 1026 684.375 1024.81 684.375 1023.57C684.375 1020.98 682.278 1018.88 679.692 1018.88H677.75C675.305 1018.88 674.081 1015.93 675.81 1014.2L676.78 1013.23C677.401 1012.61 678.243 1012.26 679.121 1012.26H684.377C688.035 1012.26 691 1009.3 691 1005.64C691 1001.75 693.649 998.352 697.426 997.409L708.006 994.764C714.032 993.258 719.099 989.194 721.878 983.639L723.049 981.295C723.757 979.881 724.125 978.322 724.125 976.74C724.125 974.039 723.052 971.449 721.141 969.539L718.455 966.853C717.844 966.242 717.5 965.413 717.5 964.548C717.5 962.126 720.049 960.55 722.216 961.633L729.063 965.055C730.172 965.61 731.396 965.899 732.636 965.899H733.155C735.857 965.899 738.449 964.825 740.359 962.915L744 959.275L750.625 952.652L758.638 944.641C762.107 941.174 764.994 937.169 767.188 932.783L768.141 930.876C769.703 927.752 771.759 924.9 774.229 922.431L777.619 919.042C781.545 915.118 783.75 909.795 783.75 904.244C783.75 897.247 787.248 890.712 793.07 886.832L801.297 881.349C802.815 880.337 804.598 879.797 806.423 879.797C808.873 879.797 811.224 878.824 812.957 877.091L813.562 876.486C815.684 874.365 818.56 873.174 821.559 873.174H827.382C833.38 873.174 839.133 870.792 843.375 866.551L845.733 864.193C848.559 861.368 850.911 858.106 852.699 854.532L854.869 850.192C856.024 847.883 856.625 845.337 856.625 842.756C856.625 840.969 856.913 839.194 857.478 837.498L861.155 826.472C862.543 822.31 863.25 817.952 863.25 813.565V806.942V805.004C863.25 802.416 865.347 800.319 867.935 800.319C869.177 800.319 870.369 799.825 871.247 798.947L876.5 793.696L883.125 787.072L889.75 780.449L898.316 771.886C901.315 768.887 903 764.82 903 760.58V753.957V747.335C903 743.676 900.034 740.71 896.375 740.71C892.133 740.71 888.065 739.025 885.065 736.026L883.125 734.087L867.935 718.901C864.935 715.902 860.867 714.217 856.625 714.217H850H843.375H834.808C832.222 714.217 830.125 712.121 830.125 709.534C830.125 708.292 829.631 707.101 828.753 706.222L825.365 702.835C824.13 701.6 822.704 700.573 821.142 699.792L816.176 697.31C812.279 695.362 807.982 694.348 803.625 694.348H800.312C798.483 694.348 797 692.865 797 691.036C797 689.207 795.517 687.725 793.688 687.725H790.375H783.75C781.305 687.725 780.081 684.769 781.81 683.041L782.78 682.071C783.401 681.45 783.75 680.608 783.75 679.73V676.883C783.75 675.301 783.382 673.742 782.674 672.328L777.944 662.869C777.405 661.792 777.125 660.605 777.125 659.401C777.125 656.464 775.465 653.779 772.838 652.466L756.551 644.324C752.654 642.376 748.357 641.362 744 641.362H728.808C725.809 641.362 722.934 640.171 720.813 638.051L719.842 637.08C718.342 635.581 717.5 633.548 717.5 631.428C717.5 629.307 716.658 627.274 715.158 625.775L714.187 624.804C712.066 622.684 709.191 621.493 706.192 621.493H704.25H702.308C699.722 621.493 697.625 619.396 697.625 616.81C697.625 615.567 697.131 614.376 696.253 613.498L692.372 609.618C691.494 608.74 690.302 608.246 689.06 608.246H687.687C685.858 608.246 684.375 606.764 684.375 604.935C684.375 603.106 682.892 601.623 681.063 601.623H677.75H675.809C672.81 601.623 669.933 602.814 667.812 604.935C665.692 607.055 662.815 608.246 659.816 608.246H657.875H649.308C646.309 608.246 643.434 607.055 641.313 604.935Z" stroke="url(#paint0_linear_1272_3122)" stroke-width="20"/>
<path d="M77.35 1068C69.9833 1068 63.9167 1065.62 59.15 1060.85C54.3833 1056.08 52 1050.02 52 1042.65V585.7C52 578.333 54.3833 572.267 59.15 567.5C63.9167 562.733 69.9833 560.35 77.35 560.35H198.9C230.533 560.35 258.7 567.067 283.4 580.5C308.1 593.5 327.383 611.917 341.25 635.75C355.55 659.15 362.7 686.233 362.7 717C362.7 746.467 355.55 772.683 341.25 795.65C327.383 818.617 308.1 836.6 283.4 849.6C258.7 862.6 230.533 869.1 198.9 869.1H102.7V1042.65C102.7 1050.02 100.317 1056.08 95.55 1060.85C90.7833 1065.62 84.7167 1068 77.35 1068ZM349.05 1068C343.417 1068 338.867 1066.92 335.4 1064.75C332.367 1062.58 329.55 1059.33 326.95 1055L202.15 856.1L252.85 843.1L369.2 1029C375.7 1039.4 376.783 1048.5 372.45 1056.3C368.55 1064.1 360.75 1068 349.05 1068ZM102.7 820.35H198.9C221 820.35 240.5 816.017 257.4 807.35C274.733 798.25 288.383 785.9 298.35 770.3C308.317 754.7 313.3 736.933 313.3 717C313.3 695.767 308.317 677.133 298.35 661.1C288.383 644.633 274.733 631.85 257.4 622.75C240.5 613.65 221 609.1 198.9 609.1H102.7V820.35ZM688.457 1074.5C650.757 1074.5 616.09 1068 584.457 1055C552.823 1042 525.307 1023.8 501.907 1000.4C478.94 977 460.957 949.483 447.957 917.85C435.39 886.217 429.107 851.55 429.107 813.85C429.107 776.583 435.39 742.133 447.957 710.5C460.957 678.867 478.94 651.35 501.907 627.95C525.307 604.55 552.823 586.35 584.457 573.35C616.09 560.35 650.757 553.85 688.457 553.85C725.723 553.85 760.173 560.35 791.807 573.35C823.44 586.35 850.957 604.55 874.357 627.95C897.757 651.35 915.74 678.867 928.307 710.5C941.307 742.133 947.807 776.583 947.807 813.85C947.807 851.55 941.307 886.217 928.307 917.85C915.74 949.483 897.757 977 874.357 1000.4C850.957 1023.8 823.44 1042 791.807 1055C760.173 1068 725.723 1074.5 688.457 1074.5ZM688.457 1026.4C718.357 1026.4 746.09 1021.2 771.657 1010.8C797.223 999.967 819.323 985.017 837.957 965.95C857.023 946.45 871.757 923.917 882.157 898.35C892.557 872.35 897.757 844.183 897.757 813.85C897.757 783.95 892.557 756.217 882.157 730.65C871.757 704.65 857.023 682.117 837.957 663.05C819.323 643.55 797.223 628.6 771.657 618.2C746.09 607.367 718.357 601.95 688.457 601.95C658.123 601.95 630.173 607.367 604.607 618.2C579.04 628.6 556.723 643.55 537.657 663.05C519.023 682.117 504.507 704.65 494.107 730.65C483.707 756.217 478.507 783.95 478.507 813.85C478.507 844.183 483.707 872.35 494.107 898.35C504.507 923.917 519.023 946.45 537.657 965.95C556.723 985.017 579.04 999.967 604.607 1010.8C630.173 1021.2 658.123 1026.4 688.457 1026.4ZM1161.22 1068C1154.29 1068 1148.22 1065.62 1143.02 1060.85C1138.25 1055.65 1135.87 1049.58 1135.87 1042.65V560.35H1186.57V1042.65C1186.57 1049.58 1184.19 1055.65 1179.42 1060.85C1174.65 1065.62 1168.59 1068 1161.22 1068ZM981.82 606.5C974.887 606.5 969.253 604.333 964.92 600C960.587 595.667 958.42 590.25 958.42 583.75C958.42 576.817 960.587 571.183 964.92 566.85C969.253 562.517 974.887 560.35 981.82 560.35H1341.27C1348.2 560.35 1353.84 562.517 1358.17 566.85C1362.5 571.183 1364.67 576.817 1364.67 583.75C1364.67 590.25 1362.5 595.667 1358.17 600C1353.84 604.333 1348.2 606.5 1341.27 606.5H981.82ZM1359.6 1068C1349.63 1068 1342.48 1063.88 1338.15 1055.65C1333.81 1047.42 1333.38 1039.4 1336.85 1031.6L1527.95 577.9C1532.71 566.2 1540.95 560.35 1552.65 560.35C1563.91 560.35 1571.93 566.2 1576.7 577.9L1768.45 1032.25C1772.35 1040.48 1771.7 1048.5 1766.5 1056.3C1761.73 1064.1 1754.8 1068 1745.7 1068C1740.5 1068 1735.73 1066.7 1731.4 1064.1C1727.5 1061.5 1724.25 1057.6 1721.65 1052.4L1542.9 618.85H1563.05L1383 1052.4C1380.83 1057.6 1377.58 1061.5 1373.25 1064.1C1369.35 1066.7 1364.8 1068 1359.6 1068ZM1402.5 947.1L1422 903.55H1685.9L1705.4 947.1H1402.5Z" fill="url(#paint1_linear_1272_3122)"/>
<path d="M77.35 1625C70.4167 1625 64.35 1622.62 59.15 1617.85C54.3833 1613.08 52 1607.02 52 1599.65V1142.7C52 1135.77 54.3833 1129.92 59.15 1125.15C64.35 1119.95 70.4167 1117.35 77.35 1117.35C84.2833 1117.35 90.1333 1119.95 94.9 1125.15C100.1 1129.92 102.7 1135.77 102.7 1142.7V1576.9H356.85C363.783 1576.9 369.633 1579.28 374.4 1584.05C379.6 1588.38 382.2 1594.02 382.2 1600.95C382.2 1607.88 379.6 1613.73 374.4 1618.5C369.633 1622.83 363.783 1625 356.85 1625H77.35ZM488.678 1625C481.311 1625 475.245 1622.62 470.478 1617.85C465.711 1613.08 463.328 1607.02 463.328 1599.65V1142.7C463.328 1135.33 465.711 1129.27 470.478 1124.5C475.245 1119.73 481.311 1117.35 488.678 1117.35C496.045 1117.35 502.111 1119.73 506.878 1124.5C511.645 1129.27 514.028 1135.33 514.028 1142.7V1599.65C514.028 1607.02 511.645 1613.08 506.878 1617.85C502.111 1622.62 496.045 1625 488.678 1625ZM669.586 1625C662.653 1625 656.586 1622.62 651.386 1617.85C646.62 1612.65 644.236 1606.58 644.236 1599.65V1142.7C644.236 1135.33 646.62 1129.27 651.386 1124.5C656.586 1119.73 662.653 1117.35 669.586 1117.35C679.986 1117.35 687.57 1121.68 692.336 1130.35L911.386 1565.85H889.286L1104.44 1130.35C1109.64 1121.68 1117.22 1117.35 1127.19 1117.35C1134.12 1117.35 1139.97 1119.73 1144.74 1124.5C1149.5 1129.27 1151.89 1135.33 1151.89 1142.7V1599.65C1151.89 1606.58 1149.5 1612.65 1144.74 1617.85C1139.97 1622.62 1134.12 1625 1127.19 1625C1119.82 1625 1113.54 1622.62 1108.34 1617.85C1103.57 1612.65 1101.19 1606.58 1101.19 1599.65V1208.35L1112.24 1209L920.486 1600.95C915.72 1609.18 908.353 1613.3 898.386 1613.3C887.553 1613.3 879.753 1608.1 874.986 1597.7L681.936 1211.6L694.936 1208.35V1599.65C694.936 1606.58 692.336 1612.65 687.136 1617.85C682.37 1622.62 676.52 1625 669.586 1625ZM1307.53 1625C1300.16 1625 1294.09 1622.62 1289.33 1617.85C1284.56 1613.08 1282.18 1607.02 1282.18 1599.65V1142.7C1282.18 1135.33 1284.56 1129.27 1289.33 1124.5C1294.09 1119.73 1300.16 1117.35 1307.53 1117.35H1437.53C1469.59 1117.35 1497.98 1124.5 1522.68 1138.8C1547.38 1152.67 1566.66 1171.95 1580.53 1196.65C1594.39 1221.35 1601.33 1249.95 1601.33 1282.45C1601.33 1314.08 1594.39 1342.25 1580.53 1366.95C1566.66 1391.22 1547.38 1410.5 1522.68 1424.8C1497.98 1438.67 1469.59 1445.6 1437.53 1445.6H1332.88V1599.65C1332.88 1607.02 1330.49 1613.08 1325.73 1617.85C1320.96 1622.62 1314.89 1625 1307.53 1625ZM1332.88 1396.85H1437.53C1459.63 1396.85 1479.34 1392.08 1496.68 1382.55C1514.01 1372.58 1527.44 1358.93 1536.98 1341.6C1546.94 1324.27 1551.93 1304.55 1551.93 1282.45C1551.93 1259.48 1546.94 1239.33 1536.98 1222C1527.44 1204.67 1514.01 1191.02 1496.68 1181.05C1479.34 1171.08 1459.63 1166.1 1437.53 1166.1H1332.88V1396.85ZM1632.55 1625C1622.58 1625 1615.43 1620.88 1611.1 1612.65C1606.76 1604.42 1606.33 1596.4 1609.8 1588.6L1800.9 1134.9C1805.66 1123.2 1813.9 1117.35 1825.6 1117.35C1836.86 1117.35 1844.88 1123.2 1849.65 1134.9L2041.4 1589.25C2045.3 1597.48 2044.65 1605.5 2039.45 1613.3C2034.68 1621.1 2027.75 1625 2018.65 1625C2013.45 1625 2008.68 1623.7 2004.35 1621.1C2000.45 1618.5 1997.2 1614.6 1994.6 1609.4L1815.85 1175.85H1836L1655.95 1609.4C1653.78 1614.6 1650.53 1618.5 1646.2 1621.1C1642.3 1623.7 1637.75 1625 1632.55 1625ZM1675.45 1504.1L1694.95 1460.55H1958.85L1978.35 1504.1H1675.45Z" fill="url(#paint2_linear_1272_3122)"/>
</g>
<defs>
<linearGradient id="paint0_linear_1272_3122" x1="717.5" y1="595" x2="717.5" y2="1052" gradientUnits="userSpaceOnUse">
<stop offset="0.322917" stop-color="#0284C7"/>
<stop offset="1" stop-color="#02C7C7"/>
</linearGradient>
<linearGradient id="paint1_linear_1272_3122" x1="903" y1="495" x2="903" y2="926" gradientUnits="userSpaceOnUse">
<stop offset="0.322917" stop-color="#0284C7"/>
<stop offset="1" stop-color="#02C7C7"/>
</linearGradient>
<linearGradient id="paint2_linear_1272_3122" x1="1040" y1="1052" x2="1040" y2="1483" gradientUnits="userSpaceOnUse">
<stop offset="0.322917" stop-color="#0284C7"/>
<stop offset="1" stop-color="#02C7C7"/>
</linearGradient>
<clipPath id="clip0_1272_3122">
<rect width="2093.33" height="2104" fill="white"/>
</clipPath>
</defs>
</svg>
