<svg width="533" height="533" viewBox="0 0 533 533" fill="none" xmlns="http://www.w3.org/2000/svg">
<g clip-path="url(#clip0_1180_3068)">
<path d="M530.273 334.929L526.67 317.837C526.136 315.301 523.699 313.692 521.23 314.239L518.345 314.88L508.197 248.297C508.183 248.208 508.167 248.119 508.149 248.03C506.339 239.442 498.821 233.208 490.274 233.208C488.974 233.208 487.668 233.352 486.389 233.635L477.881 235.525L444.232 138.714C443.46 136.492 441.203 135.207 438.955 135.701L276.708 171.754C274.463 172.254 272.925 174.387 273.116 176.738L281.456 279.172L272.947 281.062C269.264 281.881 266.08 283.793 263.646 286.394C262.991 276.638 255.072 268.899 245.407 268.899H236.702L223.755 166.971C223.458 164.63 221.517 162.88 219.219 162.88H53.217C50.9188 162.88 48.9764 164.63 48.6801 166.97L35.7319 268.898H27.0288C16.937 268.898 8.72581 277.329 8.72581 287.692C8.72581 287.783 8.7281 287.873 8.73382 287.965L12.5294 355.244H9.57575C7.04879 355.244 5 357.348 5 359.943V377.431C5 380.026 7.04879 382.129 9.57575 382.129H28.9506V404.868C28.9506 415.231 37.1618 423.662 47.2537 423.662H59.1827C69.2745 423.662 77.4857 415.231 77.4857 404.868V382.129H194.953V404.868C194.953 415.231 203.164 423.662 213.256 423.662H225.185C235.277 423.662 243.488 415.231 243.488 404.868V382.129H262.862C265.389 382.129 267.438 380.026 267.438 377.431V359.943C267.438 357.348 265.389 355.244 262.862 355.244H259.91L262.16 315.363L276.564 368.603L273.678 369.245C272.492 369.509 271.456 370.246 270.799 371.293C270.142 372.341 269.917 373.613 270.173 374.831L273.775 391.924C274.24 394.125 276.136 395.629 278.243 395.629C278.564 395.629 278.89 395.594 279.216 395.523L298.15 391.315L302.834 413.539C304.644 422.128 312.162 428.361 320.709 428.361C322.008 428.361 323.315 428.216 324.594 427.933L336.253 425.342C341.031 424.28 345.122 421.372 347.769 417.151C350.416 412.931 351.305 407.904 350.272 402.998L345.588 380.774L460.397 355.263L465.081 377.487C466.89 386.076 474.408 392.31 482.957 392.31C484.255 392.31 485.563 392.165 486.842 391.882L498.5 389.291C508.363 387.099 514.651 377.075 512.517 366.946L507.834 344.722L526.77 340.514C527.956 340.25 528.991 339.514 529.649 338.466C530.305 337.419 530.529 336.147 530.273 334.929ZM63.3523 184.15C63.6497 181.81 65.591 180.06 67.8892 180.06H204.546C206.845 180.06 208.787 181.81 209.083 184.15L219.849 268.898H52.5867L63.3523 184.15ZM58.6576 344.445C46.7435 344.445 37.0509 334.492 37.0509 322.258C37.0509 310.024 46.7435 300.072 58.6576 300.072C70.5717 300.072 80.2643 310.024 80.2643 322.258C80.2643 334.492 70.5717 344.445 58.6576 344.445ZM213.778 344.445C201.864 344.445 192.171 334.492 192.171 322.258C192.171 310.024 201.864 300.072 213.778 300.072C225.692 300.072 235.385 310.024 235.385 322.258C235.383 334.492 225.691 344.445 213.778 344.445ZM319.424 348.031C317.914 348.366 316.371 348.536 314.838 348.536C304.748 348.536 295.873 341.177 293.736 331.039C291.217 319.082 298.641 307.249 310.284 304.661C311.794 304.326 313.337 304.156 314.87 304.156C324.96 304.156 333.835 311.515 335.972 321.654C338.49 333.611 331.067 345.443 319.424 348.031ZM297.93 275.511L290.995 190.343C290.804 187.991 292.341 185.858 294.587 185.359L428.153 155.681C430.403 155.179 432.658 156.47 433.43 158.693L461.407 239.185L297.93 275.511ZM484.628 304.673C481.502 309.654 476.674 313.089 471.035 314.342C469.525 314.678 467.982 314.847 466.448 314.847C456.358 314.847 447.483 307.488 445.347 297.35C444.126 291.558 445.175 285.625 448.3 280.642C451.425 275.659 456.254 272.226 461.895 270.972C463.405 270.638 464.947 270.467 466.481 270.467C476.572 270.467 485.446 277.826 487.582 287.966C488.802 293.757 487.754 299.691 484.628 304.673Z" fill="white"/>
<path d="M277.214 411.948C274.947 408.828 270.649 408.186 267.608 410.513L212.205 452.955C209.167 455.284 208.541 459.699 210.808 462.819C212.156 464.674 214.222 465.653 216.315 465.653C217.742 465.653 219.182 465.197 220.414 464.254L275.817 421.812C278.856 419.483 279.481 415.067 277.214 411.948Z" fill="white"/>
<path d="M294.292 425.743C290.653 424.659 286.844 426.808 285.787 430.546L277.872 458.539C276.815 462.276 278.909 466.187 282.549 467.272C283.189 467.462 283.833 467.553 284.466 467.553C287.442 467.553 290.184 465.55 291.054 462.468L298.969 434.474C300.026 430.739 297.932 426.828 294.292 425.743Z" fill="white"/>
<path d="M253.525 191.577C254.765 193.942 257.13 195.284 259.574 195.284C260.673 195.284 261.788 195.013 262.822 194.441C266.159 192.596 267.408 188.322 265.611 184.895L216.364 90.9813C214.568 87.5549 210.406 86.2734 207.068 88.1176C203.731 89.9629 202.482 94.2363 204.279 97.6639L253.525 191.577Z" fill="white"/>
<path d="M152.474 129.206L201.72 151.782C202.628 152.199 203.579 152.396 204.514 152.396C207.139 152.396 209.645 150.841 210.785 148.219C212.33 144.665 210.777 140.497 207.315 138.91L158.069 116.335C154.61 114.75 150.548 116.343 149.003 119.897C147.46 123.452 149.013 127.619 152.474 129.206Z" fill="white"/>
<path d="M261.504 137.307C261.603 137.307 261.703 137.305 261.803 137.301C265.59 137.135 268.528 133.847 268.367 129.958L265.729 66.7469C265.566 62.8577 262.373 59.8365 258.578 60.0069C254.79 60.1737 251.853 63.4615 252.014 67.3495L254.652 130.56C254.81 134.347 257.849 137.307 261.504 137.307Z" fill="white"/>
</g>
<defs>
<clipPath id="clip0_1180_3068">
<rect width="533" height="533" fill="white"/>
</clipPath>
</defs>
</svg>
