<svg width="456" height="456" viewBox="0 0 456 456" fill="none" xmlns="http://www.w3.org/2000/svg">
<g clip-path="url(#clip0_1183_3079)">
<path d="M378.067 191.947C376.115 190.009 373.436 188.827 370.486 188.827C370.073 188.827 369.66 188.855 369.261 188.898H369.304C365.969 189.268 363.133 191.149 361.452 193.814L361.423 193.857C318.346 262.87 280.156 262.87 237.049 193.857C235.012 191.007 231.72 189.154 227.986 189.154C224.253 189.154 220.961 190.993 218.952 193.814L218.923 193.843C175.817 262.855 137.656 262.855 94.5352 193.843C92.8252 191.149 90.0037 189.283 86.7405 188.898H86.6835C86.3557 188.855 85.9567 188.841 85.572 188.841C82.5937 188.841 79.8862 190.038 77.9197 191.962L20.9197 248.962C18.996 250.9 17.8132 253.564 17.8132 256.5C17.8132 262.399 22.6012 267.187 28.5007 267.187C31.4362 267.187 34.101 266.005 36.039 264.081L83.7622 216.343C130.531 283.888 181.189 284.672 227.986 218.794C242.236 245.171 268.257 263.611 298.809 267.159L299.236 267.202C324.559 267.202 348.527 250.543 372.211 216.358L419.92 264.095C421.858 266.033 424.537 267.23 427.486 267.23C433.4 267.23 438.188 262.442 438.188 256.528C438.188 253.579 436.991 250.9 435.053 248.962L378.067 191.947ZM36.0532 121.552L83.7765 73.8293C130.545 141.331 181.204 142.144 228.001 76.2803C274.84 142.129 325.414 141.331 372.225 73.8293L419.934 121.552C421.872 123.505 424.565 124.716 427.529 124.716C433.443 124.716 438.231 119.928 438.231 114.014C438.231 111.05 437.02 108.371 435.082 106.433L378.082 49.4333C376.101 47.5095 373.379 46.3125 370.401 46.3125C370.016 46.3125 369.646 46.3267 369.275 46.3695H369.318C365.983 46.74 363.148 48.621 361.466 51.2857L361.438 51.3285C318.36 120.298 280.17 120.298 237.064 51.3285C235.026 48.4785 231.734 46.626 228.001 46.626C224.267 46.626 220.975 48.4642 218.966 51.2857L218.938 51.3143C175.831 120.284 137.67 120.284 94.5495 51.3143C92.8395 48.621 90.018 46.7542 86.7547 46.3695H86.6977C86.37 46.3267 85.971 46.3125 85.5862 46.3125C82.608 46.3125 79.9005 47.4953 77.934 49.4333L20.934 106.433C18.939 108.371 17.6992 111.093 17.6992 114.1C17.6992 119.999 22.4872 124.787 28.3867 124.787C31.3935 124.787 34.1152 123.547 36.0532 121.552ZM378.067 334.433C376.03 332.509 373.265 331.341 370.23 331.341C369.902 331.341 369.574 331.355 369.247 331.384H369.289C365.955 331.783 363.133 333.635 361.438 336.3L361.409 336.343C318.331 405.37 280.142 405.37 237.035 336.343C234.997 333.493 231.706 331.654 227.986 331.654C224.267 331.654 220.947 333.507 218.938 336.328L218.909 336.357C175.803 405.327 137.641 405.327 94.521 336.357C92.811 333.649 90.0037 331.783 86.7262 331.384H86.6692C86.3557 331.355 85.9852 331.327 85.6147 331.327C82.6222 331.327 79.9005 332.509 77.9055 334.447L20.9055 391.447C18.9817 393.385 17.799 396.05 17.799 398.986C17.799 404.899 22.587 409.687 28.5007 409.687C31.4362 409.687 34.101 408.505 36.0247 406.581L83.748 358.843C130.516 426.331 181.175 427.144 227.972 361.294C242.222 387.671 268.243 406.111 298.795 409.659L299.222 409.702C324.544 409.702 348.513 393.029 372.196 358.858L419.905 406.595C421.843 408.533 424.522 409.73 427.472 409.73C433.386 409.73 438.174 404.942 438.174 399.028C438.174 396.079 436.977 393.4 435.039 391.462L378.067 334.433Z" fill="white"/>
</g>
<defs>
<clipPath id="clip0_1183_3079">
<rect width="456" height="456" fill="white"/>
</clipPath>
</defs>
</svg>
