<svg width="407" height="380" viewBox="0 0 407 380" fill="none" xmlns="http://www.w3.org/2000/svg">
<path d="M171.83 29.1456L14.9638 310.341C11.7296 316.355 10.0183 323.173 10.0001 330.118C9.98204 337.063 11.6577 343.892 14.8606 349.925C18.0634 355.959 22.6816 360.986 28.2559 364.508C33.8302 368.03 40.1661 369.924 46.6334 370H360.367C366.834 369.924 373.17 368.03 378.744 364.508C384.318 360.986 388.937 355.959 392.139 349.925C395.342 343.892 397.018 337.063 397 330.118C396.982 323.173 395.27 316.355 392.036 310.341L235.17 29.1456C231.868 23.3011 227.219 18.4689 221.672 15.1154C216.125 11.7618 209.866 10 203.5 10C197.134 10 190.875 11.7618 185.328 15.1154C179.781 18.4689 175.132 23.3011 171.83 29.1456V29.1456Z" stroke="white" stroke-width="20" stroke-linecap="round" stroke-linejoin="round"/>
<path d="M203.52 131.369V210.915" stroke="white" stroke-width="20" stroke-linecap="round" stroke-linejoin="round"/>
<path d="M203.52 290.453H203.701" stroke="white" stroke-width="20" stroke-linecap="round" stroke-linejoin="round"/>
</svg>
