<svg width="456" height="456" viewBox="0 0 456 456" fill="none" xmlns="http://www.w3.org/2000/svg">
<path d="M272.535 112.582C290.014 115.992 306.078 124.541 318.671 137.134C331.263 149.726 339.812 165.79 343.222 183.27M272.535 41C308.85 45.0343 342.714 61.2967 368.567 87.117C394.419 112.937 410.724 146.781 414.804 183.091M396.909 325.897V379.584C396.929 384.568 395.908 389.501 393.911 394.068C391.915 398.634 388.986 402.733 385.314 406.103C381.641 409.472 377.306 412.037 372.584 413.634C367.863 415.23 362.86 415.823 357.896 415.375C302.829 409.391 249.933 390.574 203.458 360.436C160.219 332.96 123.56 296.301 96.0846 253.062C65.8407 206.376 47.0193 153.223 41.1453 97.9078C40.6981 92.9591 41.2862 87.9715 42.8722 83.2626C44.4582 78.5536 47.0073 74.2265 50.3573 70.5567C53.7072 66.8869 57.7846 63.9548 62.3298 61.9471C66.8751 59.9395 71.7885 58.9002 76.7574 58.8955H130.444C139.129 58.8101 147.548 61.8855 154.133 67.5486C160.719 73.2118 165.02 81.0761 166.235 89.6759C168.501 106.857 172.703 123.726 178.762 139.962C181.17 146.368 181.691 153.329 180.264 160.021C178.836 166.713 175.52 172.856 170.709 177.722L147.982 200.449C173.457 245.252 210.553 282.347 255.355 307.823L278.082 285.095C282.948 280.284 289.091 276.968 295.783 275.541C302.475 274.113 309.437 274.635 315.842 277.042C332.078 283.101 348.948 287.303 366.128 289.569C374.821 290.796 382.761 295.174 388.436 301.872C394.111 308.57 397.127 317.121 396.909 325.897Z" stroke="white" stroke-width="20" stroke-linecap="round" stroke-linejoin="round"/>
</svg>
