<svg width="810" height="576" viewBox="0 0 810 576" fill="none" xmlns="http://www.w3.org/2000/svg">
<g clip-path="url(#clip0_1214_3070)">
<path d="M44 576V511.258H73.8484M123.67 394.214V424.748H103.697V481.856M123.67 394.214H144.53M123.67 394.214H97.372M172.714 394.214V424.748H209.331V355.765H246.17V332.3H258.598V347.566H272.357M172.714 394.214H144.53M172.714 394.214V347.849M319.626 276.605V301.484M319.626 276.605H295.436M319.626 276.605V186.843V97.0811H354.467V108.955M502.267 138.64H469.644V186.702H453.222V163.519H419.934V229.957H381.098V211.581H354.467V108.955M502.267 138.64V211.581H519.799V186.702H543.1V265.296M502.267 138.64V97.0811M617 -3V39.4072H589.26V79.8354H543.1V64.8516H502.267V97.0811M319.626 301.484H355.133V332.3M319.626 301.484V332.3V363.116V420.224V471.961H284.562M313.19 424.748H272.357V386.157M272.357 347.566H283.897V276.605H295.436M272.357 347.566V386.157M295.436 276.605V229.957H262.814M103.697 481.856V511.258H73.8484M103.697 481.856H88.6061V431.815H71.0744V394.214H97.372M103.697 481.856H123.67V511.258H144.53V481.856M73.8484 511.258V547.729H144.53V523.415H162.062V494.013M144.53 394.214V464.61H162.062V494.013M272.357 386.157H246.17V424.748V443.689H230.192M355.133 332.3V394.214H334.162V443.689H372.887V394.214H396.189M355.133 332.3H381.098V301.484H408.394V276.605H453.222M262.814 229.957H230.192V276.605H211.107M262.814 229.957V196.738M304.979 138.64H283.897V163.519H262.814V196.738M97.372 394.214V355.765H53.3207V332.3H79.0635V276.605M162.062 494.013H192.021V523.415H209.331V464.61M211.107 276.605H192.021V301.484H172.714V347.849M211.107 276.605V246.354H172.714V276.605H134.988V301.484M172.714 347.849H154.073V332.3H123.67V355.765M502.267 97.0811H481.85V74.1812H456.107V53.543H473.972M491.837 74.1812V53.543H473.972M473.972 53.543V23.5752H524.903V-3M354.467 108.955H383.539V74.1812H419.934V88.0342H431.474V57.501H393.082V32.6221M262.814 196.738H251.274M251.274 196.738H240.4V171.718H219.318V186.843H208.443V153.341H227.307M251.274 196.738V126.766H246.17V153.341H227.307M227.307 153.341V88.0342M227.307 88.0342H262.814V104.149H278.127V78.4219H292.995V39.6899H253.715V57.501H270.803M227.307 88.0342H208.443V69.6577H236.406V39.6899H208.443V20.748H177.153" stroke="white" stroke-width="5" stroke-linecap="round" stroke-linejoin="round" stroke-dasharray="20 20"/>
</g>
<defs>
<clipPath id="clip0_1214_3070">
<rect width="810" height="576" fill="white"/>
</clipPath>
</defs>
</svg>
