<svg width="456" height="456" viewBox="0 0 456 456" fill="none" xmlns="http://www.w3.org/2000/svg">
<path d="M436.625 70.2857V30.3214C436.625 22.968 431.925 17 426.134 17H352.7H247.794H142.888H27.4906C21.6998 17 17 22.968 17 30.3214V190.179C17 197.532 21.6998 203.5 27.4906 203.5H58.9625V363.357H48.4719C42.6811 363.357 37.9813 369.325 37.9813 376.679C37.9813 384.032 42.6811 390 48.4719 390H132.397C138.188 390 142.888 384.032 142.888 376.679C142.888 369.325 138.188 363.357 132.397 363.357H121.906V283.429H331.719V363.357H321.228C315.437 363.357 310.738 369.325 310.738 376.679C310.738 384.032 315.437 390 321.228 390H405.153C410.944 390 415.644 384.032 415.644 376.679C415.644 369.325 410.944 363.357 405.153 363.357H394.663V203.5H426.134C431.925 203.5 436.625 197.532 436.625 190.179V70.2857ZM415.644 64.7706L327.376 176.857H252.137L357.043 43.6429H415.644V64.7706ZM147.231 176.857L252.137 43.6429H327.376L222.469 176.857H147.231V176.857ZM42.3244 176.857L147.231 43.6429H222.469L117.563 176.857H42.3244V176.857ZM117.563 43.6429L37.9813 144.699V43.6429H117.563ZM79.9438 363.357V203.5H100.925V363.357H79.9438ZM121.906 256.786V203.5H331.719V256.786H121.906ZM373.681 363.357H352.7V203.5H373.681V363.357ZM357.043 176.857L415.644 102.444V176.857H357.043Z" fill="white"/>
</svg>
