<svg width="456" height="456" viewBox="0 0 456 456" fill="none" xmlns="http://www.w3.org/2000/svg">
<path d="M395.751 395.389L52.661 52.2983C50.9647 50.4496 48.9028 48.9735 46.606 47.9638C44.3092 46.954 41.8276 46.4326 39.3186 46.4326C36.8096 46.4326 34.328 46.954 32.0312 47.9638C29.7343 48.9735 27.6724 50.4496 25.9762 52.2983C22.7441 55.0748 20.661 58.9548 20.1325 63.1829C19.604 67.4109 20.6679 71.6843 23.1171 75.171L87.923 140.93L113.655 401.107C114.129 405.825 116.345 410.197 119.869 413.369C123.394 416.541 127.974 418.285 132.715 418.261H327.133C331.875 418.285 336.455 416.541 339.98 413.369C343.504 410.197 345.72 405.825 346.194 401.107V399.201L369.067 422.074C370.763 423.922 372.825 425.398 375.122 426.408C377.418 427.418 379.9 427.939 382.409 427.939C384.918 427.939 387.4 427.418 389.696 426.408C391.993 425.398 394.055 423.922 395.751 422.074C397.6 420.377 399.076 418.315 400.086 416.019C401.096 413.722 401.617 411.24 401.617 408.731C401.617 406.222 401.096 403.74 400.086 401.444C399.076 399.147 397.6 397.085 395.751 395.389ZM309.979 380.14H149.87L130.809 183.816L303.308 356.314L311.885 364.892L309.979 380.14Z" fill="white"/>
<path d="M410.997 73.2757C411.12 78.9042 409.073 84.3643 405.279 88.5241C401.76 92.1154 396.964 94.1707 391.937 94.2423H277.573C272.518 94.2423 267.67 92.2341 264.095 88.6596C260.521 85.085 258.513 80.2369 258.513 75.1817V56.1212H201.331V75.1817C201.331 80.2369 199.323 85.085 195.748 88.6596C192.174 92.2341 187.326 94.2423 182.27 94.2423H151.773L113.652 56.1212H163.21V37.0606C163.21 32.0054 165.218 27.1573 168.793 23.5827C172.367 20.0082 177.215 18 182.27 18H277.573C282.628 18 287.477 20.0082 291.051 23.5827C294.626 27.1573 296.634 32.0054 296.634 37.0606V56.1212H390.984C395.832 56.0715 400.533 57.7832 404.214 60.9382C407.894 64.0933 410.305 68.4773 410.997 73.2757Z" fill="white"/>
<path d="M351.907 132.375C347.165 132.351 342.585 134.096 339.061 137.268C335.536 140.44 333.321 144.812 332.846 149.53L321.41 263.893L356.672 298.201L370.967 153.342C371.235 150.683 370.94 147.998 370.102 145.461C369.265 142.924 367.903 140.591 366.106 138.614C364.309 136.637 362.116 135.06 359.67 133.985C357.224 132.91 354.579 132.362 351.907 132.375Z" fill="white"/>
</svg>
