<svg width="456" height="456" viewBox="0 0 456 456" fill="none" xmlns="http://www.w3.org/2000/svg">
<path d="M245.419 306.144H152.848V337.001H245.419V306.144Z" fill="white"/>
<path d="M357.218 105.571L383.669 198.143H446V167.286H406.947L386.89 97.1042C385.032 90.6644 381.136 85.0009 375.786 80.9638C370.436 76.9266 363.92 74.7338 357.218 74.7143H336.414L325.171 35.3899C323.314 28.9509 319.418 23.2879 314.069 19.2509C308.719 15.2138 302.205 13.0205 295.504 13H102.782C96.0816 13.0202 89.5683 15.2126 84.2192 19.2481C78.8701 23.2836 74.9737 28.9447 73.1146 35.3822L53.0528 105.571H14V136.429H76.3314L102.782 43.8571H295.504L304.321 74.7143H164.496C157.797 74.7344 151.285 76.9253 145.937 80.9587C140.588 84.992 136.69 90.6505 134.829 97.0857L119.178 151.857H102.165C95.7329 151.854 89.461 153.863 84.2276 157.602C78.9942 161.342 75.0615 166.624 72.9803 172.71L53.6746 229H14V259.857H44.8571V367.857C44.8674 376.038 48.1216 383.881 53.9063 389.665C59.6909 395.45 67.5336 398.704 75.7143 398.714V445H106.571V398.714H291.714V445H322.571V398.714C330.752 398.704 338.595 395.45 344.379 389.665C350.164 383.881 353.418 376.038 353.429 367.857V259.857H384.286V229H344.614L325.313 172.724C323.232 166.635 319.299 161.35 314.064 157.608C308.83 153.866 302.555 151.855 296.121 151.857H151.268L164.496 105.571H357.218ZM322.571 275.286V306.143H291.714V337H322.571V367.857H75.7143V337H106.571V306.143H75.7143V275.286H322.571ZM317.281 244.429H81.0032L102.165 182.714H296.121L317.281 244.429Z" fill="white"/>
</svg>
